<svg width="215" height="215" viewBox="0 0 215 215" fill="none" xmlns="http://www.w3.org/2000/svg">
<g clip-path="url(#clip0_19_2862)">
<path d="M124.703 77.4401C124.703 71.1861 119.629 66.1081 113.369 66.1081C107.113 66.1081 102.035 71.1861 102.035 77.4401C102.035 83.6941 107.113 88.7721 113.369 88.7721C119.628 88.7721 124.703 83.6941 124.703 77.4401ZM93.4822 80.0421C93.4822 73.7881 88.4062 68.7101 82.1482 68.7101C75.8922 68.7101 70.8162 73.7881 70.8162 80.0421C70.8162 86.2961 75.8922 91.3721 82.1482 91.3721C88.4062 91.3721 93.4822 86.2961 93.4822 80.0421ZM75.2712 127.618C75.2712 121.364 70.1912 116.29 63.9372 116.29C57.6812 116.29 52.6012 121.364 52.6012 127.618C52.6012 133.874 57.6812 138.948 63.9372 138.948C70.1912 138.948 75.2712 133.874 75.2712 127.618ZM65.2342 93.4231C65.2342 87.1671 60.1582 82.0931 53.9022 82.0931C47.6442 82.0931 42.5682 87.1671 42.5682 93.4231C42.5682 99.6791 47.6442 104.753 53.9022 104.753C60.1582 104.753 65.2342 99.6791 65.2342 93.4231ZM157.333 119.925H169.632C179.021 119.925 186.632 112.314 186.632 102.931C186.632 102.513 186.616 102.093 186.587 101.675C185.64 97.0341 183.751 92.6401 181.048 88.7531C176.495 82.3761 170.63 77.0501 163.849 73.1301C155.841 68.3841 147.163 64.8681 138.111 62.6911C128.177 60.2401 117.984 58.9961 107.748 58.9961C97.5162 58.9961 87.3222 60.2401 77.3872 62.6911C68.3342 64.8691 59.6592 68.3841 51.6492 73.1301C44.8682 77.0501 39.0032 82.3761 34.4502 88.7531V88.7511C30.6282 94.1461 28.5262 100.569 28.4092 107.181C28.5262 113.79 30.6282 120.208 34.4502 125.603C39.0032 131.982 44.8682 137.304 51.6492 141.226V141.232C59.6592 145.974 68.3352 149.494 77.3872 151.666C82.3562 152.859 87.3872 153.783 92.4552 154.437C97.1372 155.035 101.851 155.337 106.572 155.337C106.965 155.337 107.355 155.337 107.748 155.331C113.09 155.192 118.42 154.886 123.742 154.411C129.84 154.194 134.668 149.184 134.668 143.087C134.664 142.925 134.662 142.761 134.662 142.593C134.662 130.073 144.812 119.931 157.333 119.925ZM157.333 125.591H169.632C182.15 125.591 192.3 115.446 192.3 102.931C192.3 102.247 192.269 101.564 192.204 100.882H192.208C191.124 95.3531 188.903 90.1111 185.681 85.4871V85.4891C180.66 78.4541 174.193 72.5691 166.714 68.2431C158.23 63.2181 149.04 59.4911 139.452 57.1901C129.075 54.6271 118.431 53.3291 107.747 53.3291C97.0632 53.3291 86.4172 54.6281 76.0442 57.1901C66.4562 59.4911 57.2692 63.2171 48.7842 68.2431H48.7822C41.3102 72.5671 34.8452 78.4421 29.8302 85.4681C25.3262 91.8231 22.8552 99.3941 22.7422 107.181C22.8552 114.966 25.3262 122.531 29.8302 128.89C34.8462 135.911 41.3102 141.786 48.7832 146.119C57.2732 151.146 66.4682 154.873 76.0642 157.178C81.2322 158.416 86.4602 159.371 91.7322 160.053C96.6542 160.688 101.609 161.002 106.572 161.002C107 161.002 107.426 161.002 107.853 160.996H107.851C113.277 160.855 118.705 160.547 124.111 160.068C133.185 159.652 140.336 152.175 140.336 143.088C140.336 143.063 140.336 143.039 140.336 143.014C140.328 142.877 140.328 142.737 140.328 142.594C140.328 133.202 147.943 125.591 157.333 125.591Z" fill="black"/>
<path d="M157.333 119.925H169.632C179.021 119.925 186.632 112.314 186.632 102.931C186.632 102.513 186.616 102.093 186.587 101.675C185.64 97.0341 183.751 92.6401 181.048 88.7531C176.495 82.3761 170.63 77.0501 163.849 73.1301C155.841 68.3841 147.163 64.8681 138.111 62.6911C128.177 60.2401 117.984 58.9961 107.748 58.9961C97.5162 58.9961 87.3222 60.2401 77.3872 62.6911C68.3342 64.8691 59.6592 68.3841 51.6492 73.1301C44.8682 77.0501 39.0032 82.3761 34.4502 88.7531V88.7511C30.6282 94.1461 28.5262 100.569 28.4092 107.181C28.5262 113.79 30.6282 120.208 34.4502 125.603C39.0032 131.982 44.8682 137.304 51.6492 141.226V141.232C59.6592 145.974 68.3352 149.494 77.3872 151.666C82.3562 152.859 87.3872 153.783 92.4552 154.437C97.1372 155.035 101.851 155.337 106.572 155.337C106.965 155.337 107.355 155.337 107.748 155.331C113.09 155.192 118.42 154.886 123.742 154.411C129.84 154.194 134.668 149.184 134.668 143.087C134.664 142.925 134.662 142.761 134.662 142.593C134.662 130.073 144.812 119.931 157.333 119.925Z" fill="white"/>
<path d="M124.703 77.4399C124.703 71.1859 119.629 66.1079 113.369 66.1079C107.113 66.1079 102.035 71.1859 102.035 77.4399C102.035 83.6939 107.113 88.7719 113.369 88.7719C119.628 88.7719 124.703 83.6939 124.703 77.4399ZM93.4824 80.0419C93.4824 73.7879 88.4064 68.7099 82.1484 68.7099C75.8924 68.7099 70.8164 73.7879 70.8164 80.0419C70.8164 86.2959 75.8924 91.3719 82.1484 91.3719C88.4064 91.3719 93.4824 86.2959 93.4824 80.0419ZM75.2714 127.618C75.2714 121.364 70.1914 116.29 63.9374 116.29C57.6814 116.29 52.6014 121.364 52.6014 127.618C52.6014 133.874 57.6814 138.948 63.9374 138.948C70.1914 138.948 75.2714 133.874 75.2714 127.618ZM65.2344 93.4229C65.2344 87.1669 60.1584 82.0929 53.9024 82.0929C47.6444 82.0929 42.5684 87.1669 42.5684 93.4229C42.5684 99.6789 47.6444 104.753 53.9024 104.753C60.1584 104.753 65.2344 99.6789 65.2344 93.4229Z" fill="black"/>
<path d="M102.838 110.268V109.53H103.582V108.784V108.042H104.326V107.298H105.068V106.556H105.814V105.814H106.554V105.068H107.298H108.042V104.324H108.784H109.526H110.27V103.584H111.012H111.756H112.502H113.246H113.988H114.732H115.472H116.218H116.958H117.704H118.444H119.19H119.934H120.678H121.42V104.324H122.16H122.906H123.646V105.068H124.392H125.136V105.814H125.88V106.556H126.622L127.366 107.298V108.042H128.108V108.784V109.53H128.852V110.268V111.012V111.756H128.108V112.502V113.246H127.366V113.988H126.622V114.732H125.88H125.136V115.476H124.392L123.646 116.22H122.906H122.16V116.958H121.42H120.678H119.934H119.19H118.444V117.704H117.704H116.958H116.218H115.472H114.732H113.988H113.246V116.958H112.502H111.756H111.012H110.27H109.526V116.22H108.784H108.042V115.476H107.298H106.554V114.732H105.814H105.068V113.988H104.326V113.246H103.582V112.502V111.756V111.012H102.838V110.268ZM97.6367 110.268V111.012V111.756V112.502V113.246H98.3787V113.988V114.732H99.1227V115.476V116.22H99.8647V116.958H100.609V117.704H101.353V118.444H102.095V119.19H102.837V119.934H103.581H104.325V120.678H105.067H105.813V121.422H106.553H107.297L108.041 122.164H108.783H109.525H110.269V122.902H111.011H111.755H112.501H113.245H113.987H114.731H115.471H116.217H116.957H117.703H118.443H119.189H119.933H120.677H121.419V122.164H122.159H122.905H123.645L124.391 121.422H125.135H125.879V120.678H126.621H127.365V119.934H128.107H128.851V119.19H129.593V118.444H130.333V117.704H131.079V116.958H131.823V116.22H132.567V115.476H133.311V114.732V113.988L134.053 113.246V112.502V111.756V111.012V110.268V109.53V108.784V108.042V107.298H133.311V106.556V105.814H132.567V105.068V104.324H131.823V103.584H131.079V102.84H130.333V102.096H129.593V101.352H128.851H128.107V100.612H127.365L126.621 99.8681H125.879L125.135 99.1241H124.391H123.645V98.3801H122.905H122.159H121.419H120.677H119.933V97.6401H119.189H118.443H117.703H116.957H116.217H115.471H114.731H113.987H113.245H112.501H111.755L111.011 98.3801H110.269H109.525H108.783L108.041 99.1241H107.297H106.553V99.8681H105.813H105.067V100.612H104.325H103.581V101.352H102.837L102.095 102.096H101.353V102.84H100.609V103.584H99.8647V104.324H99.1227V105.068V105.814H98.3787V106.556V107.298H97.6367V108.042V108.784V109.53V110.268Z" fill="black"/>
<path d="M1 196.592V213.6H18.008M1 18.008V1H18.008L1 18.008ZM213.599 18.008V1H196.591L213.599 18.008ZM196.591 213.6H213.599V196.592L196.591 213.6Z" stroke="black" stroke-width="2" stroke-miterlimit="10" stroke-linecap="round" stroke-linejoin="round"/>
</g>
<defs>
<clipPath id="clip0_19_2862">
<rect width="214.599" height="214.6" fill="white"/>
</clipPath>
</defs>
</svg>
