<svg width="24" height="24" viewBox="0 0 24 24" fill="none" xmlns="http://www.w3.org/2000/svg">
<circle cx="12" cy="12" r="10" stroke="#90A3BF" strokeWidth="0.5"/>
<path d="M5.42215 14.3941C5.04433 13.3561 4.91755 12.2434 5.05218 11.1469C5.1868 10.0505 5.57901 9.00146 6.19674 8.08565C6.81447 7.16983 7.64017 6.41321 8.60634 5.87766C9.57251 5.3421 10.6517 5.04281 11.7557 5.00426C12.8597 4.96571 13.9572 5.18899 14.9583 5.65585C15.9595 6.12271 16.836 6.81989 17.5161 7.69038C18.1962 8.56088 18.6606 9.57998 18.8714 10.6644C19.0822 11.7487 19.0333 12.8676 18.7288 13.9295" stroke="#90A3BF" strokeWidth="0.5" stroke-linecap="round" stroke-linejoin="round" stroke-dasharray="5 5"/>
<path d="M14.5307 10.041L13.0329 10.9455C12.5024 11.2574 11.9407 11.5381 11.4103 11.7876C11.2543 11.85 11.067 11.9435 10.8798 12.0371C10.2245 12.3802 9.88129 13.0975 10.0373 13.8149C10.1621 14.3763 10.6302 14.8441 11.1918 14.9689C11.3166 15 11.4415 15 11.5663 15C12.1592 15 12.6896 14.657 12.9705 14.1268C13.0329 13.9708 13.1265 13.7837 13.2201 13.5965C13.5009 13.0663 13.7506 12.5049 14.0626 11.9747L14.9675 10.4776C15.0299 10.3529 14.9987 10.2281 14.9051 10.1034C14.8115 9.97859 14.6555 9.97859 14.5307 10.041ZM13.5321 11.6316C13.1889 12.193 12.908 12.7544 12.6584 13.3158C12.596 13.503 12.5024 13.6589 12.4088 13.8461C12.2216 14.2515 11.7847 14.4386 11.3479 14.3451C11.0046 14.2827 10.7238 14.002 10.6614 13.6589C10.5678 13.2223 10.755 12.7856 11.1607 12.5985C11.3167 12.5049 11.5039 12.4426 11.6911 12.349C12.2528 12.0683 12.8457 11.7876 13.3761 11.4757L13.7818 11.2262L13.5321 11.6316Z" fill="#90A3BF"/>
</svg>
