<svg width="110" height="136" viewBox="0 0 110 136" fill="none" xmlns="http://www.w3.org/2000/svg">
<path d="M109.935 15.8383C109.935 7.17396 102.879 0.125153 94.2154 0.125153C85.5513 0.125153 78.5027 7.17396 78.5027 15.8383C78.5027 23.271 83.6896 29.494 90.6223 31.124V64.1512H58.9724V31.124C65.9051 29.494 71.0919 23.271 71.0919 15.8383C71.0919 7.17396 64.0432 0.125153 55.3719 0.125153C46.7078 0.125153 39.6664 7.17396 39.6664 15.8383C39.6664 23.271 44.8461 29.494 51.7788 31.124V64.1512H20.129V31.124C27.0617 29.494 32.2485 23.271 32.2485 15.8383C32.2485 7.17396 25.1999 0.125153 16.5359 0.125153C7.87905 0.125153 0.823242 7.17396 0.823242 15.8383C0.823242 23.271 6.01007 29.494 12.9428 31.124V104.285C6.01007 105.908 0.823242 112.138 0.823242 119.571C0.823242 128.228 7.87905 135.277 16.5359 135.277C25.1999 135.277 32.2485 128.228 32.2485 119.571C32.2485 112.138 27.0617 105.908 20.129 104.285V71.3377H51.7788V104.285C44.8461 105.908 39.6664 112.138 39.6664 119.571C39.6664 128.228 46.7078 135.277 55.3719 135.277C64.0432 135.277 71.0919 128.228 71.0919 119.571C71.0919 112.138 65.9051 105.908 58.9724 104.285V71.3377H97.9171V64.1512H97.8085V31.124C104.741 29.494 109.935 23.271 109.935 15.8383ZM46.8455 15.8383C46.8455 11.1366 50.6704 7.30438 55.3719 7.30438C60.0806 7.30438 63.9054 11.1366 63.9054 15.8383C63.9054 20.5471 60.0806 24.3722 55.3719 24.3722C50.6704 24.3722 46.8455 20.5471 46.8455 15.8383ZM8.002 15.8383C8.002 11.1366 11.8344 7.30438 16.5359 7.30438C21.2373 7.30438 25.0694 11.1366 25.0694 15.8383C25.0694 20.5471 21.2373 24.3722 16.5359 24.3722C11.8344 24.3722 8.002 20.5471 8.002 15.8383ZM25.0694 119.571C25.0694 124.265 21.2373 128.098 16.5359 128.098C11.8344 128.098 8.002 124.265 8.002 119.571C8.002 114.862 11.8344 111.037 16.5359 111.037C21.2373 111.037 25.0694 114.862 25.0694 119.571ZM63.9054 119.571C63.9054 124.265 60.0806 128.098 55.3719 128.098C50.6704 128.098 46.8455 124.265 46.8455 119.571C46.8455 114.862 50.6704 111.037 55.3719 111.037C60.0806 111.037 63.9054 114.862 63.9054 119.571ZM85.6815 15.8383C85.6815 11.1366 89.5139 7.30438 94.2154 7.30438C98.9168 7.30438 102.749 11.1366 102.749 15.8383C102.749 20.5471 98.9168 24.3722 94.2154 24.3722C89.5139 24.3722 85.6815 20.5471 85.6815 15.8383Z" fill="#FEFEFE"/>
</svg>
